<mxfile host="app.diagrams.net" modified="2022-12-28T08:49:41.084Z" agent="5.0 (Windows NT 10.0; Win64; x64) AppleWebKit/537.36 (KHTML, like Gecko) Chrome/108.0.0.0 Safari/537.36" version="20.7.4" etag="27r3Oy4QTEgJsc0OqtUc" type="github">
  <diagram id="03CdtlfjuE8w9teT2pfl" name="第 1 页">
    <mxGraphModel dx="2226" dy="1124" grid="1" gridSize="10" guides="1" tooltips="1" connect="1" arrows="1" fold="1" page="1" pageScale="1" pageWidth="827" pageHeight="1169" math="0" shadow="0">
      <root>
        <mxCell id="0" />
        <mxCell id="1" parent="0" />
        <mxCell id="QsrsbOHXdL7Bp1kiGKoi-3" style="edgeStyle=orthogonalEdgeStyle;rounded=0;orthogonalLoop=1;jettySize=auto;html=1;entryX=0;entryY=0.5;entryDx=0;entryDy=0;" edge="1" parent="1" source="QsrsbOHXdL7Bp1kiGKoi-1" target="QsrsbOHXdL7Bp1kiGKoi-2">
          <mxGeometry relative="1" as="geometry" />
        </mxCell>
        <mxCell id="QsrsbOHXdL7Bp1kiGKoi-1" value="工控设备" style="rounded=1;whiteSpace=wrap;html=1;" vertex="1" parent="1">
          <mxGeometry x="40" y="140" width="120" height="60" as="geometry" />
        </mxCell>
        <mxCell id="QsrsbOHXdL7Bp1kiGKoi-5" style="edgeStyle=orthogonalEdgeStyle;rounded=0;orthogonalLoop=1;jettySize=auto;html=1;" edge="1" parent="1" source="QsrsbOHXdL7Bp1kiGKoi-2" target="QsrsbOHXdL7Bp1kiGKoi-4">
          <mxGeometry relative="1" as="geometry" />
        </mxCell>
        <mxCell id="QsrsbOHXdL7Bp1kiGKoi-2" value="工控数据库" style="rounded=1;whiteSpace=wrap;html=1;" vertex="1" parent="1">
          <mxGeometry x="320" y="140" width="120" height="60" as="geometry" />
        </mxCell>
        <mxCell id="QsrsbOHXdL7Bp1kiGKoi-4" value="浙砼管平台" style="rounded=1;whiteSpace=wrap;html=1;" vertex="1" parent="1">
          <mxGeometry x="600" y="140" width="120" height="60" as="geometry" />
        </mxCell>
        <mxCell id="QsrsbOHXdL7Bp1kiGKoi-8" value="API" style="text;strokeColor=none;align=center;fillColor=none;html=1;verticalAlign=middle;whiteSpace=wrap;rounded=0;" vertex="1" parent="1">
          <mxGeometry x="490" y="130" width="60" height="30" as="geometry" />
        </mxCell>
        <mxCell id="QsrsbOHXdL7Bp1kiGKoi-10" value="&lt;font style=&quot;font-size: 18px;&quot;&gt;1.工控设备数据会自动保存到工控数据库中&lt;/font&gt;" style="text;strokeColor=none;align=center;fillColor=none;html=1;verticalAlign=middle;whiteSpace=wrap;rounded=0;" vertex="1" parent="1">
          <mxGeometry x="40" y="240" width="370" height="40" as="geometry" />
        </mxCell>
        <mxCell id="QsrsbOHXdL7Bp1kiGKoi-11" value="&lt;font style=&quot;font-size: 18px;&quot;&gt;2.上传程序直接读取工控数据库中的生产数据&lt;/font&gt;" style="text;strokeColor=none;align=center;fillColor=none;html=1;verticalAlign=middle;whiteSpace=wrap;rounded=0;" vertex="1" parent="1">
          <mxGeometry x="40" y="290" width="390" height="40" as="geometry" />
        </mxCell>
        <mxCell id="QsrsbOHXdL7Bp1kiGKoi-12" value="&lt;font style=&quot;font-size: 18px;&quot;&gt;3.直接将工控数据通过API接口上传到浙砼管平台&lt;/font&gt;" style="text;strokeColor=none;align=center;fillColor=none;html=1;verticalAlign=middle;whiteSpace=wrap;rounded=0;" vertex="1" parent="1">
          <mxGeometry x="40" y="340" width="420" height="40" as="geometry" />
        </mxCell>
      </root>
    </mxGraphModel>
  </diagram>
</mxfile>
